<?xml version="1.0" encoding="utf-8"?>
<!-- Generator: Adobe Illustrator 16.0.0, SVG Export Plug-In . SVG Version: 6.00 Build 0)  -->
<!DOCTYPE svg PUBLIC "-//W3C//DTD SVG 1.1//EN" "http://www.w3.org/Graphics/SVG/1.1/DTD/svg11.dtd">
<svg version="1.1" id="Layer_1" xmlns="http://www.w3.org/2000/svg" xmlns:xlink="http://www.w3.org/1999/xlink" x="0px" y="0px"
	 width="162.5px" height="56.69px" viewBox="0 0 162.5 56.69" enable-background="new 0 0 162.5 56.69" xml:space="preserve">
<g>
	<g>
		<g>
			<path fill="#E61A4B" d="M2.178,1.561v53.568h53.566V1.561H2.178z M18.247,47.094h-8.034V9.596h8.034V47.094z M47.71,17.63h-9.373
				v29.463h-8.035V17.63h-9.375V9.596H47.71V17.63z"/>
		</g>
	</g>
	<g>
		<path fill="#273D54" d="M80.596,10.427H71.04v6.232h8.966v0.831H71.04v6.844h9.644v0.831H70.1V9.596h10.496V10.427z"/>
		<path fill="#273D54" d="M91.924,25.166h-0.831v-2.733c-0.568,1.968-2.187,3.084-4.264,3.084c-3.084,0-5.009-2.253-5.009-5.905
			c0-3.652,1.969-5.991,5.009-5.991c2.077,0,3.564,1.115,4.22,2.93V9.596h0.875V25.166z M82.739,19.611
			c0,3.193,1.574,5.161,4.133,5.161c2.581,0,4.199-1.99,4.199-5.204c0-2.625-1.246-5.183-4.221-5.183
			C84.336,14.385,82.739,16.419,82.739,19.611z"/>
		<path fill="#273D54" d="M103.252,25.166h-0.831v-2.361c-0.722,1.64-1.99,2.689-4.023,2.689c-2.668,0-3.959-1.728-3.959-4.308
			v-7.216h0.875v7.02c0,1.99,0.722,3.74,3.259,3.74c2.689,0,3.805-2.34,3.805-4.68v-6.079h0.875V25.166z"/>
		<path fill="#273D54" d="M110.513,25.494c-3.412,0-5.14-2.668-5.14-5.883c0-3.63,2.056-5.97,5.249-5.97
			c2.58,0,4.287,1.4,4.571,3.761h-0.897c-0.24-1.815-1.618-3.017-3.652-3.017c-2.668,0-4.374,2.034-4.374,5.183
			c0,3.126,1.685,5.182,4.222,5.182c2.144,0,3.631-1.334,3.914-3.521h0.876C114.931,23.919,113.182,25.494,110.513,25.494z"/>
		<path fill="#273D54" d="M126.849,25.078c-0.305,0.109-0.547,0.131-0.896,0.131c-0.983,0-1.29-0.437-1.29-1.88v-0.546
			c-0.94,1.837-2.23,2.689-4.373,2.689c-2.317,0-3.696-1.159-3.696-3.127c0-2.537,2.144-3.259,4.287-3.433
			c2.93-0.241,3.258-0.285,3.564-0.766c0.131-0.197,0.152-0.656,0.152-1.159c0-1.684-1.115-2.58-3.171-2.58
			c-2.077,0-3.215,1.027-3.39,2.996h-0.831c0.153-2.427,1.685-3.739,4.31-3.739c1.442,0,2.623,0.416,3.323,1.203
			c0.656,0.744,0.634,1.662,0.634,2.602v5.795c0,0.656,0,1.203,0.809,1.203c0.197,0,0.307-0.022,0.568-0.087V25.078z M123.854,19.24
			c-1.641,0.503-3.412,0.24-5.009,0.962c-0.83,0.372-1.312,1.115-1.312,2.056c0,1.509,1.115,2.449,2.908,2.449
			c2.406,0,4.177-1.661,4.177-3.914v-1.968C124.356,19.064,124.247,19.13,123.854,19.24z"/>
		<path fill="#273D54" d="M132.229,14.735h-2.405v7.588c0,1.159-0.043,2.099,1.487,2.099c0.218,0,0.502-0.021,0.918-0.087v0.81
			c-0.481,0.065-0.678,0.087-1.05,0.087c-2.361,0-2.229-1.465-2.229-3.259v-7.238h-2.077v-0.766h2.077v-3.521h0.874v3.521h2.405
			V14.735z"/>
		<path fill="#273D54" d="M134.809,11.804h-0.874V9.596h0.874V11.804z M134.809,25.166h-0.874V13.969h0.874V25.166z"/>
		<path fill="#273D54" d="M147.273,19.633c0,3.586-2.033,5.86-5.183,5.86c-3.171,0-5.205-2.318-5.205-5.926
			c0-3.564,2.078-5.927,5.228-5.927C145.24,13.641,147.273,15.981,147.273,19.633z M137.783,19.568c0,3.149,1.684,5.161,4.33,5.161
			c2.58,0,4.242-2.012,4.242-5.095c0-3.171-1.685-5.227-4.265-5.227S137.783,16.484,137.783,19.568z"/>
		<path fill="#273D54" d="M150.052,16.44c0.786-1.793,2.055-2.777,4.132-2.777c2.516,0,3.937,1.597,3.937,4.155v7.348h-0.875v-6.91
			c0-2.144-0.699-3.806-3.258-3.806c-1.443,0-2.602,0.678-3.279,1.837c-0.438,0.766-0.635,1.619-0.635,3.083v5.795h-0.875V13.969
			h0.854V16.44z"/>
		<path fill="#273D54" d="M82.461,47.109h-3.394l-1.159-3.289h-5.483l-1.2,3.289h-3.311l5.607-14.754h3.332L82.461,47.109z
			 M75.178,35.977l-1.966,5.484h3.911L75.178,35.977z"/>
		<path fill="#273D54" d="M88.461,47.379c-3.29,0-5.441-2.193-5.441-5.525c0-3.455,2.172-5.73,5.482-5.73
			c2.856,0,4.76,1.551,5.008,4.035h-2.876c-0.207-1.182-0.973-1.842-2.11-1.842c-1.594,0-2.545,1.281-2.545,3.475
			c0,2.133,0.91,3.354,2.482,3.354c1.263,0,2.049-0.746,2.276-2.152h2.835C93.2,45.764,91.296,47.379,88.461,47.379z"/>
		<path fill="#273D54" d="M102.221,47.109c-0.146-0.393-0.166-0.559-0.207-1.035c-0.91,0.91-2.173,1.346-3.455,1.346
			c-2.358,0-3.808-1.221-3.808-3.229c0-2.793,2.545-3.125,4.655-3.393c1.904-0.248,2.607-0.414,2.607-1.283
			c0-0.973-0.621-1.428-1.925-1.428c-1.345,0-1.903,0.414-2.109,1.635h-2.753c0.166-2.379,1.863-3.6,4.945-3.6
			c2.152,0,4.656,0.496,4.656,3.475v4.615c0,0.973-0.021,1.986,0.372,2.896H102.221z M99.925,42.475
			c-1.015,0.166-2.152,0.289-2.152,1.594c0,0.891,0.6,1.428,1.613,1.428c1.531,0,2.607-0.85,2.607-2.381v-1.199
			C101.311,42.309,100.669,42.35,99.925,42.475z"/>
		<path fill="#273D54" d="M114.78,47.109v-1.365c-0.703,1.096-1.759,1.656-3.228,1.656c-2.96,0-4.843-2.215-4.843-5.67
			c0-3.373,1.842-5.588,4.678-5.588c1.262,0,2.565,0.518,3.248,1.615v-5.381h2.918v14.732H114.78z M112.194,38.461
			c-1.594,0-2.524,1.221-2.524,3.27c0,2.068,0.951,3.311,2.524,3.311c1.613,0,2.545-1.201,2.545-3.291
			C114.739,39.682,113.787,38.461,112.194,38.461z"/>
		<path fill="#273D54" d="M124.815,47.42c-3.289,0-5.462-2.234-5.462-5.588c0-3.309,2.255-5.709,5.359-5.709
			c3.227,0,5.276,2.357,5.276,6.104v0.289h-7.655c0.041,1.842,0.93,2.834,2.503,2.834c1.076,0,1.738-0.475,2.173-1.551h2.813
			C129.161,46.117,127.237,47.42,124.815,47.42z M124.713,38.254c-1.304,0-2.215,0.91-2.379,2.4h4.676
			C126.885,39.35,126.182,38.254,124.713,38.254z"/>
		<path fill="#273D54" d="M145.135,47.109v-6.373c0-1.18-0.188-2.193-1.698-2.193c-1.53,0-2.048,1.117-2.048,2.566v6h-2.938v-6.496
			c0-1.139-0.229-2.09-1.614-2.09c-1.697,0-2.132,1.344-2.132,2.793v5.793h-2.938V36.432h2.793v1.471
			c0.827-1.158,1.883-1.76,3.394-1.76c1.407,0,2.483,0.58,3.021,1.76c0.849-1.158,1.986-1.76,3.497-1.76
			c2.4,0,3.642,1.512,3.642,3.787v7.18H145.135z"/>
		<path fill="#273D54" d="M156.183,47.068c-0.869,2.357-1.366,3.848-4.076,3.848c-0.909,0-0.538,0-1.966-0.02v-2.422h1.428
			c0.973,0,1.49-0.537,1.49-1.428c0-0.102-0.041-0.289-0.083-0.414l-3.869-10.201h3.166l2.441,7.264l2.359-7.264h3.04
			L156.183,47.068z"/>
	</g>
</g>
</svg>
